<svg xmlns="http://www.w3.org/2000/svg" width="1200" height="560" viewBox="0 0 1200 560">
  <defs>
    <linearGradient id="logo" x1="0" y1="0" x2="1" y2="1"><stop offset="0%" stop-color="#3b82f6"/><stop offset="100%" stop-color="#8b5cf6"/></linearGradient>
  </defs>
  <rect width="1200" height="560" fill="#0b0e1a"/>
  <!-- Sidebar -->
  <rect width="240" height="560" fill="#111627"/>
  <line x1="240" y1="0" x2="240" y2="560" stroke="#1e2540"/>
  <rect x="20" y="18" width="32" height="32" rx="8" fill="url(#logo)"/>
  <path d="M28 14c0 0-5 4.5-5 9.5C23 26.1 25.2 28 28 28s5-1.9 5-4.5C33 18.5 28 14 28 14z" fill="rgba(255,255,255,0.85)"/><ellipse cx="28" cy="24.5" rx="2" ry="2.8" fill="rgba(59,130,246,0.5)"/>
  <text x="62" y="40" fill="#e8eaf0" font-family="system-ui" font-weight="700" font-size="20">Hestia</text>
  <line x1="0" y1="64" x2="240" y2="64" stroke="#1e2540"/>
  <text x="24" y="100" fill="#7b83a6" font-size="16">📊</text><text x="50" y="100" fill="#7b83a6" font-family="system-ui" font-size="14">Dashboard</text>
  <text x="24" y="136" fill="#7b83a6" font-size="16">📁</text><text x="50" y="136" fill="#7b83a6" font-family="system-ui" font-size="14">Files</text>
  <text x="24" y="172" fill="#7b83a6" font-size="16">⚡</text><text x="50" y="172" fill="#7b83a6" font-family="system-ui" font-size="14">Pipelines</text>
  <text x="24" y="206" fill="#7b83a6" font-size="16">💾</text><text x="50" y="206" fill="#7b83a6" font-family="system-ui" font-size="14">Storage</text>
  <text x="24" y="240" fill="#7b83a6" font-size="16">🔌</text><text x="50" y="240" fill="#7b83a6" font-family="system-ui" font-size="14">IoT</text>
  <rect x="10" y="254" width="220" height="38" rx="8" fill="rgba(59,130,246,0.12)"/>
  <text x="24" y="278" fill="#3b82f6" font-size="16">⚙️</text><text x="50" y="278" fill="#3b82f6" font-family="system-ui" font-size="14" font-weight="600">Admin</text>
  <!-- Topbar -->
  <rect x="240" y="0" width="960" height="56" fill="rgba(11,14,26,0.9)"/>
  <line x1="240" y1="56" x2="1200" y2="56" stroke="#1e2540"/>
  <text x="272" y="34" fill="#e8eaf0" font-family="system-ui" font-size="16" font-weight="600">Admin</text>
  <!-- Tabs -->
  <text x="272" y="86" fill="#3b82f6" font-family="system-ui" font-size="13" font-weight="600">Users</text>
  <line x1="272" y1="94" x2="306" y2="94" stroke="#3b82f6" stroke-width="2"/>
  <text x="330" y="86" fill="#4a5178" font-family="system-ui" font-size="13" font-weight="600">System Logs</text>
  <line x1="272" y1="100" x2="1172" y2="100" stroke="#1e2540"/>
  <!-- Create user card -->
  <rect x="272" y="116" width="900" height="90" rx="10" fill="#111627" stroke="#1e2540"/>
  <text x="292" y="140" fill="#4a5178" font-family="system-ui" font-size="12" font-weight="600" letter-spacing="0.8">CREATE USER</text>
  <text x="292" y="164" fill="#7b83a6" font-family="system-ui" font-size="11" font-weight="600" letter-spacing="0.4">USERNAME</text>
  <rect x="292" y="170" width="180" height="28" rx="8" fill="#0b0e1a" stroke="#1e2540"/>
  <text x="306" y="189" fill="#4a5178" font-family="system-ui" font-size="13">johndoe</text>
  <text x="492" y="164" fill="#7b83a6" font-family="system-ui" font-size="11" font-weight="600" letter-spacing="0.4">EMAIL</text>
  <rect x="492" y="170" width="240" height="28" rx="8" fill="#0b0e1a" stroke="#1e2540"/>
  <text x="506" y="189" fill="#4a5178" font-family="system-ui" font-size="13">john@example.com</text>
  <text x="752" y="164" fill="#7b83a6" font-family="system-ui" font-size="11" font-weight="600" letter-spacing="0.4">ROLE</text>
  <rect x="752" y="170" width="120" height="28" rx="8" fill="#0b0e1a" stroke="#1e2540"/>
  <text x="766" y="189" fill="#e8eaf0" font-family="system-ui" font-size="13">User</text>
  <rect x="900" y="170" width="110" height="28" rx="8" fill="#3b82f6"/>
  <text x="920" y="189" fill="#fff" font-family="system-ui" font-size="13" font-weight="600">Create user</text>
  <!-- Table -->
  <text x="292" y="244" fill="#4a5178" font-family="system-ui" font-size="10" font-weight="600" letter-spacing="0.6">USERNAME</text>
  <text x="460" y="244" fill="#4a5178" font-family="system-ui" font-size="10" font-weight="600" letter-spacing="0.6">EMAIL</text>
  <text x="720" y="244" fill="#4a5178" font-family="system-ui" font-size="10" font-weight="600" letter-spacing="0.6">ROLE</text>
  <text x="850" y="244" fill="#4a5178" font-family="system-ui" font-size="10" font-weight="600" letter-spacing="0.6">2FA</text>
  <line x1="272" y1="254" x2="1172" y2="254" stroke="#1e2540"/>
  <!-- Row 1: admin -->
  <text x="292" y="280" fill="#e8eaf0" font-family="system-ui" font-size="13" font-weight="600">admin</text>
  <text x="460" y="280" fill="#7b83a6" font-family="system-ui" font-size="13">admin@hestia.local</text>
  <rect x="720" y="267" width="55" height="20" rx="10" fill="rgba(167,139,250,0.12)"/>
  <circle cx="732" cy="277" r="3" fill="#8b5cf6"/>
  <text x="739" y="281" fill="#a78bfa" font-family="system-ui" font-size="10" font-weight="600">admin</text>
  <text x="850" y="280" fill="#22c55e" font-family="system-ui" font-size="14">✓</text>
  <rect x="1100" y="266" width="60" height="24" rx="8" fill="rgba(239,68,68,0.12)" stroke="rgba(239,68,68,0.2)"/>
  <text x="1115" y="283" fill="#f87171" font-family="system-ui" font-size="11" font-weight="600">Delete</text>
  <line x1="272" y1="296" x2="1172" y2="296" stroke="rgba(30,37,64,0.6)"/>
  <!-- Row 2 -->
  <text x="292" y="322" fill="#e8eaf0" font-family="system-ui" font-size="13" font-weight="600">alex</text>
  <text x="460" y="322" fill="#7b83a6" font-family="system-ui" font-size="13">alex@home.local</text>
  <rect x="720" y="309" width="45" height="20" rx="10" fill="rgba(59,130,246,0.12)"/>
  <circle cx="732" cy="319" r="3" fill="#3b82f6"/>
  <text x="739" y="323" fill="#60a5fa" font-family="system-ui" font-size="10" font-weight="600">user</text>
  <text x="850" y="322" fill="#4a5178" font-family="system-ui" font-size="14">—</text>
  <rect x="1100" y="308" width="60" height="24" rx="8" fill="rgba(239,68,68,0.12)" stroke="rgba(239,68,68,0.2)"/>
  <text x="1115" y="325" fill="#f87171" font-family="system-ui" font-size="11" font-weight="600">Delete</text>
  <line x1="272" y1="338" x2="1172" y2="338" stroke="rgba(30,37,64,0.6)"/>
  <!-- Row 3 -->
  <text x="292" y="364" fill="#e8eaf0" font-family="system-ui" font-size="13" font-weight="600">sam</text>
  <text x="460" y="364" fill="#7b83a6" font-family="system-ui" font-size="13">sam@home.local</text>
  <rect x="720" y="351" width="45" height="20" rx="10" fill="rgba(59,130,246,0.12)"/>
  <circle cx="732" cy="361" r="3" fill="#3b82f6"/>
  <text x="739" y="365" fill="#60a5fa" font-family="system-ui" font-size="10" font-weight="600">user</text>
  <text x="850" y="364" fill="#22c55e" font-family="system-ui" font-size="14">✓</text>
  <rect x="1100" y="350" width="60" height="24" rx="8" fill="rgba(239,68,68,0.12)" stroke="rgba(239,68,68,0.2)"/>
  <text x="1115" y="367" fill="#f87171" font-family="system-ui" font-size="11" font-weight="600">Delete</text>
</svg>
