<svg xmlns="http://www.w3.org/2000/svg" width="1200" height="600" viewBox="0 0 1200 600">
  <rect width="1200" height="600" fill="#0f1117"/>
  <!-- Nav -->
  <rect width="1200" height="48" fill="#161822"/>
  <text x="20" y="30" fill="#e1e1e6" font-family="system-ui" font-weight="700" font-size="18">🔥 Hestia</text>
  <text x="120" y="30" fill="#a0a3b1" font-family="system-ui" font-size="14">Dashboard</text>
  <text x="220" y="30" fill="#a0a3b1" font-family="system-ui" font-size="14">Files</text>
  <text x="280" y="30" fill="#a0a3b1" font-family="system-ui" font-size="14">Pipelines</text>
  <text x="370" y="30" fill="#a0a3b1" font-family="system-ui" font-size="14">Storage</text>
  <text x="445" y="30" fill="#a0a3b1" font-family="system-ui" font-size="14">IoT</text>
  <text x="490" y="30" fill="#e1e1e6" font-family="system-ui" font-size="14" font-weight="500">Admin</text>
  <line x1="490" y1="46" x2="535" y2="46" stroke="#4f5bff" stroke-width="2"/>
  <!-- Title -->
  <text x="40" y="90" fill="#e1e1e6" font-family="system-ui" font-size="24" font-weight="600">Admin</text>
  <!-- Tabs -->
  <text x="40" y="120" fill="#e1e1e6" font-family="system-ui" font-size="14" font-weight="500">Users</text>
  <line x1="40" y1="128" x2="80" y2="128" stroke="#4f5bff" stroke-width="2"/>
  <text x="110" y="120" fill="#a0a3b1" font-family="system-ui" font-size="14">System Logs</text>
  <!-- Create user card -->
  <rect x="40" y="145" width="1120" height="90" rx="8" fill="#161822" stroke="#2a2d3a"/>
  <text x="60" y="170" fill="#a0a3b1" font-family="system-ui" font-size="14">Create User</text>
  <text x="60" y="195" fill="#a0a3b1" font-family="system-ui" font-size="12">Username</text>
  <rect x="60" y="200" width="180" height="28" rx="4" fill="#1e2030" stroke="#2a2d3a"/>
  <text x="280" y="195" fill="#a0a3b1" font-family="system-ui" font-size="12">Email</text>
  <rect x="280" y="200" width="220" height="28" rx="4" fill="#1e2030" stroke="#2a2d3a"/>
  <text x="540" y="195" fill="#a0a3b1" font-family="system-ui" font-size="12">Role</text>
  <rect x="540" y="200" width="120" height="28" rx="4" fill="#1e2030" stroke="#2a2d3a"/>
  <text x="552" y="219" fill="#e1e1e6" font-family="system-ui" font-size="13">User</text>
  <rect x="700" y="200" width="100" height="28" rx="6" fill="#4f5bff"/>
  <text x="720" y="219" fill="#fff" font-family="system-ui" font-size="13" font-weight="500">Create user</text>
  <!-- Users table -->
  <text x="40" y="275" fill="#a0a3b1" font-family="system-ui" font-size="16">Users</text>
  <text x="60" y="305" fill="#a0a3b1" font-family="system-ui" font-size="11" font-weight="600">USERNAME</text>
  <text x="250" y="305" fill="#a0a3b1" font-family="system-ui" font-size="11" font-weight="600">EMAIL</text>
  <text x="520" y="305" fill="#a0a3b1" font-family="system-ui" font-size="11" font-weight="600">ROLE</text>
  <text x="650" y="305" fill="#a0a3b1" font-family="system-ui" font-size="11" font-weight="600">2FA</text>
  <text x="750" y="305" fill="#a0a3b1" font-family="system-ui" font-size="11" font-weight="600"></text>
  <line x1="40" y1="315" x2="1160" y2="315" stroke="#2a2d3a"/>
  <!-- User rows -->
  <text x="60" y="340" fill="#e1e1e6" font-family="system-ui" font-size="14" font-weight="600">admin</text>
  <text x="250" y="340" fill="#e1e1e6" font-family="system-ui" font-size="13">admin@hestia.local</text>
  <rect x="520" y="327" width="55" height="20" rx="10" fill="#2a1a3a"/>
  <text x="533" y="341" fill="#c084fc" font-family="system-ui" font-size="11" font-weight="600">admin</text>
  <text x="650" y="340" fill="#4ade80" font-family="system-ui" font-size="14">✓</text>
  <rect x="750" y="326" width="60" height="24" rx="6" fill="#dc2626"/>
  <text x="763" y="343" fill="#fff" font-family="system-ui" font-size="12" font-weight="500">Delete</text>
  <line x1="40" y1="355" x2="1160" y2="355" stroke="#2a2d3a"/>

  <text x="60" y="380" fill="#e1e1e6" font-family="system-ui" font-size="14" font-weight="600">alex</text>
  <text x="250" y="380" fill="#e1e1e6" font-family="system-ui" font-size="13">alex@home.local</text>
  <rect x="520" y="367" width="45" height="20" rx="10" fill="#1a2a3a"/>
  <text x="533" y="381" fill="#60a5fa" font-family="system-ui" font-size="11" font-weight="600">user</text>
  <text x="650" y="380" fill="#a0a3b1" font-family="system-ui" font-size="14">—</text>
  <rect x="750" y="366" width="60" height="24" rx="6" fill="#dc2626"/>
  <text x="763" y="383" fill="#fff" font-family="system-ui" font-size="12" font-weight="500">Delete</text>
  <line x1="40" y1="395" x2="1160" y2="395" stroke="#2a2d3a"/>

  <text x="60" y="420" fill="#e1e1e6" font-family="system-ui" font-size="14" font-weight="600">sam</text>
  <text x="250" y="420" fill="#e1e1e6" font-family="system-ui" font-size="13">sam@home.local</text>
  <rect x="520" y="407" width="45" height="20" rx="10" fill="#1a2a3a"/>
  <text x="533" y="421" fill="#60a5fa" font-family="system-ui" font-size="11" font-weight="600">user</text>
  <text x="650" y="420" fill="#4ade80" font-family="system-ui" font-size="14">✓</text>
  <rect x="750" y="406" width="60" height="24" rx="6" fill="#dc2626"/>
  <text x="763" y="423" fill="#fff" font-family="system-ui" font-size="12" font-weight="500">Delete</text>
</svg>
