<svg xmlns="http://www.w3.org/2000/svg" width="1200" height="700" viewBox="0 0 1200 700">
  <defs>
    <linearGradient id="logo" x1="0" y1="0" x2="1" y2="1"><stop offset="0%" stop-color="#3b82f6"/><stop offset="100%" stop-color="#8b5cf6"/></linearGradient>
    <linearGradient id="prog" x1="0" y1="0" x2="1" y2="0"><stop offset="0%" stop-color="#3b82f6"/><stop offset="100%" stop-color="#60a5fa"/></linearGradient>
  </defs>
  <rect width="1200" height="700" fill="#0b0e1a"/>
  <!-- Sidebar -->
  <rect width="240" height="700" fill="#111627"/>
  <line x1="240" y1="0" x2="240" y2="700" stroke="#1e2540"/>
  <!-- Logo -->
  <rect x="20" y="18" width="32" height="32" rx="8" fill="url(#logo)"/>
  <path d="M28 14c0 0-5 4.5-5 9.5C23 26.1 25.2 28 28 28s5-1.9 5-4.5C33 18.5 28 14 28 14z" fill="rgba(255,255,255,0.85)"/><ellipse cx="28" cy="24.5" rx="2" ry="2.8" fill="rgba(59,130,246,0.5)"/>
  <text x="62" y="40" fill="#e8eaf0" font-family="system-ui" font-weight="700" font-size="20">Hestia</text>
  <line x1="0" y1="64" x2="240" y2="64" stroke="#1e2540"/>
  <!-- Nav items -->
  <rect x="10" y="76" width="220" height="38" rx="8" fill="rgba(59,130,246,0.12)"/>
  <text x="24" y="100" fill="#3b82f6" font-size="16">📊</text>
  <text x="50" y="100" fill="#3b82f6" font-family="system-ui" font-size="14" font-weight="600">Dashboard</text>
  <text x="24" y="138" fill="#7b83a6" font-size="16">📁</text>
  <text x="50" y="138" fill="#7b83a6" font-family="system-ui" font-size="14">Files</text>
  <text x="24" y="172" fill="#7b83a6" font-size="16">⚡</text>
  <text x="50" y="172" fill="#7b83a6" font-family="system-ui" font-size="14">Pipelines</text>
  <text x="24" y="206" fill="#7b83a6" font-size="16">💾</text>
  <text x="50" y="206" fill="#7b83a6" font-family="system-ui" font-size="14">Storage</text>
  <text x="24" y="240" fill="#7b83a6" font-size="16">🔌</text>
  <text x="50" y="240" fill="#7b83a6" font-family="system-ui" font-size="14">IoT</text>
  <text x="24" y="274" fill="#7b83a6" font-size="16">⚙️</text>
  <text x="50" y="274" fill="#7b83a6" font-family="system-ui" font-size="14">Admin</text>
  <!-- Lang switcher -->
  <line x1="0" y1="660" x2="240" y2="660" stroke="#1e2540"/>
  <rect x="16" y="672" width="36" height="22" rx="6" fill="#3b82f6"/>
  <text x="24" y="688" fill="#fff" font-size="12">🇬🇧</text>
  <rect x="58" y="672" width="36" height="22" rx="6" fill="transparent"/>
  <text x="66" y="688" fill="#7b83a6" font-size="12">🇹🇷</text>
  <rect x="100" y="672" width="36" height="22" rx="6" fill="transparent"/>
  <text x="108" y="688" fill="#7b83a6" font-size="12">🇩🇪</text>
  <!-- Topbar -->
  <rect x="240" y="0" width="960" height="56" fill="rgba(11,14,26,0.9)"/>
  <line x1="240" y1="56" x2="1200" y2="56" stroke="#1e2540"/>
  <text x="272" y="34" fill="#e8eaf0" font-family="system-ui" font-size="16" font-weight="600">Dashboard</text>
  <text x="1140" y="34" fill="#4a5178" font-family="system-ui" font-size="12">v1.0.0</text>
  <!-- Stat cards -->
  <rect x="272" y="76" width="280" height="90" rx="10" fill="#111627" stroke="#1e2540"/>
  <text x="292" y="102" fill="#4a5178" font-family="system-ui" font-size="11" font-weight="600" letter-spacing="0.5">TOTAL SERVICES</text>
  <text x="292" y="142" fill="#e8eaf0" font-family="system-ui" font-size="32" font-weight="700">8</text>
  <rect x="572" y="76" width="280" height="90" rx="10" fill="#111627" stroke="#1e2540"/>
  <text x="592" y="102" fill="#4a5178" font-family="system-ui" font-size="11" font-weight="600" letter-spacing="0.5">HEALTHY</text>
  <text x="592" y="142" fill="#22c55e" font-family="system-ui" font-size="32" font-weight="700">7</text>
  <rect x="872" y="76" width="280" height="90" rx="10" fill="#111627" stroke="#1e2540"/>
  <text x="892" y="102" fill="#4a5178" font-family="system-ui" font-size="11" font-weight="600" letter-spacing="0.5">ISSUES</text>
  <text x="892" y="142" fill="#ef4444" font-family="system-ui" font-size="32" font-weight="700">1</text>
  <!-- Section header -->
  <text x="272" y="206" fill="#4a5178" font-family="system-ui" font-size="12" font-weight="600" letter-spacing="0.8">SERVICE HEALTH</text>
  <!-- Service cards row 1 -->
  <rect x="272" y="222" width="220" height="76" rx="10" fill="#111627" stroke="#1e2540"/>
  <text x="290" y="248" fill="#e8eaf0" font-family="system-ui" font-size="13" font-weight="600">API Gateway</text>
  <rect x="420" y="236" width="58" height="18" rx="9" fill="rgba(34,197,94,0.12)"/>
  <circle cx="432" cy="245" r="3" fill="#22c55e"/>
  <text x="439" y="249" fill="#4ade80" font-family="system-ui" font-size="10" font-weight="600">healthy</text>
  <text x="290" y="278" fill="#4a5178" font-family="system-ui" font-size="11">Uptime: <tspan fill="#7b83a6">2d 4h</tspan></text>

  <rect x="506" y="222" width="220" height="76" rx="10" fill="#111627" stroke="#1e2540"/>
  <text x="524" y="248" fill="#e8eaf0" font-family="system-ui" font-size="13" font-weight="600">File Processor</text>
  <rect x="654" y="236" width="58" height="18" rx="9" fill="rgba(34,197,94,0.12)"/>
  <circle cx="666" cy="245" r="3" fill="#22c55e"/>
  <text x="673" y="249" fill="#4ade80" font-family="system-ui" font-size="10" font-weight="600">healthy</text>
  <text x="524" y="278" fill="#4a5178" font-family="system-ui" font-size="11">Uptime: <tspan fill="#7b83a6">2d 4h</tspan></text>

  <rect x="740" y="222" width="220" height="76" rx="10" fill="#111627" stroke="#1e2540"/>
  <text x="758" y="248" fill="#e8eaf0" font-family="system-ui" font-size="13" font-weight="600">Job Queue</text>
  <rect x="888" y="236" width="58" height="18" rx="9" fill="rgba(34,197,94,0.12)"/>
  <circle cx="900" cy="245" r="3" fill="#22c55e"/>
  <text x="907" y="249" fill="#4ade80" font-family="system-ui" font-size="10" font-weight="600">healthy</text>
  <text x="758" y="278" fill="#4a5178" font-family="system-ui" font-size="11">Uptime: <tspan fill="#7b83a6">2d 4h</tspan></text>

  <rect x="974" y="222" width="220" height="76" rx="10" fill="#111627" stroke="#1e2540"/>
  <text x="992" y="248" fill="#e8eaf0" font-family="system-ui" font-size="13" font-weight="600">Storage</text>
  <rect x="1122" y="236" width="58" height="18" rx="9" fill="rgba(34,197,94,0.12)"/>
  <circle cx="1134" cy="245" r="3" fill="#22c55e"/>
  <text x="1141" y="249" fill="#4ade80" font-family="system-ui" font-size="10" font-weight="600">healthy</text>
  <text x="992" y="278" fill="#4a5178" font-family="system-ui" font-size="11">Uptime: <tspan fill="#7b83a6">2d 3h</tspan></text>

  <!-- Row 2 -->
  <rect x="272" y="312" width="220" height="76" rx="10" fill="#111627" stroke="#1e2540"/>
  <text x="290" y="338" fill="#e8eaf0" font-family="system-ui" font-size="13" font-weight="600">IoT Bridge</text>
  <rect x="420" y="326" width="58" height="18" rx="9" fill="rgba(34,197,94,0.12)"/>
  <circle cx="432" cy="335" r="3" fill="#22c55e"/>
  <text x="439" y="339" fill="#4ade80" font-family="system-ui" font-size="10" font-weight="600">healthy</text>
  <text x="290" y="368" fill="#4a5178" font-family="system-ui" font-size="11">Uptime: <tspan fill="#7b83a6">2d 4h</tspan></text>

  <rect x="506" y="312" width="220" height="76" rx="10" fill="#111627" stroke="#1e2540"/>
  <text x="524" y="338" fill="#e8eaf0" font-family="system-ui" font-size="13" font-weight="600">Authelia</text>
  <rect x="654" y="326" width="58" height="18" rx="9" fill="rgba(34,197,94,0.12)"/>
  <circle cx="666" cy="335" r="3" fill="#22c55e"/>
  <text x="673" y="339" fill="#4ade80" font-family="system-ui" font-size="10" font-weight="600">healthy</text>
  <text x="524" y="368" fill="#4a5178" font-family="system-ui" font-size="11">Uptime: <tspan fill="#7b83a6">2d 4h</tspan></text>

  <rect x="740" y="312" width="220" height="76" rx="10" fill="#111627" stroke="#1e2540"/>
  <text x="758" y="338" fill="#e8eaf0" font-family="system-ui" font-size="13" font-weight="600">Redis</text>
  <rect x="888" y="326" width="68" height="18" rx="9" fill="rgba(234,179,8,0.12)"/>
  <circle cx="900" cy="335" r="3" fill="#eab308"/>
  <text x="907" y="339" fill="#facc15" font-family="system-ui" font-size="10" font-weight="600">degraded</text>
  <text x="758" y="368" fill="#4a5178" font-family="system-ui" font-size="11">Uptime: <tspan fill="#7b83a6">2h 10m</tspan></text>

  <rect x="974" y="312" width="220" height="76" rx="10" fill="#111627" stroke="#1e2540"/>
  <text x="992" y="338" fill="#e8eaf0" font-family="system-ui" font-size="13" font-weight="600">Mosquitto</text>
  <rect x="1122" y="326" width="58" height="18" rx="9" fill="rgba(34,197,94,0.12)"/>
  <circle cx="1134" cy="335" r="3" fill="#22c55e"/>
  <text x="1141" y="339" fill="#4ade80" font-family="system-ui" font-size="10" font-weight="600">healthy</text>
  <text x="992" y="368" fill="#4a5178" font-family="system-ui" font-size="11">Uptime: <tspan fill="#7b83a6">2d 4h</tspan></text>
</svg>
