<svg xmlns="http://www.w3.org/2000/svg" width="1200" height="560" viewBox="0 0 1200 560">
  <defs>
    <linearGradient id="logo" x1="0" y1="0" x2="1" y2="1"><stop offset="0%" stop-color="#3b82f6"/><stop offset="100%" stop-color="#8b5cf6"/></linearGradient>
  </defs>
  <rect width="1200" height="560" fill="#0b0e1a"/>
  <!-- Sidebar -->
  <rect width="240" height="560" fill="#111627"/>
  <line x1="240" y1="0" x2="240" y2="560" stroke="#1e2540"/>
  <rect x="20" y="18" width="32" height="32" rx="8" fill="url(#logo)"/>
  <path d="M28 14c0 0-5 4.5-5 9.5C23 26.1 25.2 28 28 28s5-1.9 5-4.5C33 18.5 28 14 28 14z" fill="rgba(255,255,255,0.85)"/><ellipse cx="28" cy="24.5" rx="2" ry="2.8" fill="rgba(59,130,246,0.5)"/>
  <text x="62" y="40" fill="#e8eaf0" font-family="system-ui" font-weight="700" font-size="20">Hestia</text>
  <line x1="0" y1="64" x2="240" y2="64" stroke="#1e2540"/>
  <text x="24" y="100" fill="#7b83a6" font-size="16">📊</text><text x="50" y="100" fill="#7b83a6" font-family="system-ui" font-size="14">Dashboard</text>
  <text x="24" y="136" fill="#7b83a6" font-size="16">📁</text><text x="50" y="136" fill="#7b83a6" font-family="system-ui" font-size="14">Files</text>
  <text x="24" y="172" fill="#7b83a6" font-size="16">⚡</text><text x="50" y="172" fill="#7b83a6" font-family="system-ui" font-size="14">Pipelines</text>
  <rect x="10" y="186" width="220" height="38" rx="8" fill="rgba(59,130,246,0.12)"/>
  <text x="24" y="210" fill="#3b82f6" font-size="16">💾</text><text x="50" y="210" fill="#3b82f6" font-family="system-ui" font-size="14" font-weight="600">Storage</text>
  <text x="24" y="246" fill="#7b83a6" font-size="16">🔌</text><text x="50" y="246" fill="#7b83a6" font-family="system-ui" font-size="14">IoT</text>
  <text x="24" y="280" fill="#7b83a6" font-size="16">⚙️</text><text x="50" y="280" fill="#7b83a6" font-family="system-ui" font-size="14">Admin</text>
  <!-- Topbar -->
  <rect x="240" y="0" width="960" height="56" fill="rgba(11,14,26,0.9)"/>
  <line x1="240" y1="56" x2="1200" y2="56" stroke="#1e2540"/>
  <text x="272" y="34" fill="#e8eaf0" font-family="system-ui" font-size="16" font-weight="600">Storage</text>
  <!-- Create share card -->
  <rect x="272" y="76" width="900" height="110" rx="10" fill="#111627" stroke="#1e2540"/>
  <text x="292" y="100" fill="#4a5178" font-family="system-ui" font-size="12" font-weight="600" letter-spacing="0.8">CREATE SHARE</text>
  <text x="292" y="126" fill="#7b83a6" font-family="system-ui" font-size="11" font-weight="600" letter-spacing="0.4">SHARE NAME</text>
  <rect x="292" y="132" width="180" height="28" rx="8" fill="#0b0e1a" stroke="#1e2540"/>
  <text x="306" y="151" fill="#4a5178" font-family="system-ui" font-size="13">family-photos</text>
  <text x="492" y="126" fill="#7b83a6" font-family="system-ui" font-size="11" font-weight="600" letter-spacing="0.4">PATH</text>
  <rect x="492" y="132" width="220" height="28" rx="8" fill="#0b0e1a" stroke="#1e2540"/>
  <text x="506" y="151" fill="#e8eaf0" font-family="system-ui" font-size="13">/srv/storage/</text>
  <text x="732" y="126" fill="#7b83a6" font-family="system-ui" font-size="11" font-weight="600" letter-spacing="0.4">ALLOWED USERS</text>
  <rect x="732" y="132" width="180" height="28" rx="8" fill="#0b0e1a" stroke="#1e2540"/>
  <text x="746" y="151" fill="#4a5178" font-family="system-ui" font-size="13">alex, sam</text>
  <text x="932" y="126" fill="#7b83a6" font-family="system-ui" font-size="11" font-weight="600" letter-spacing="0.4">READ ONLY</text>
  <rect x="932" y="134" width="40" height="22" rx="11" fill="#1e2540"/>
  <circle cx="945" cy="145" r="8" fill="#7b83a6"/>
  <rect x="1000" y="132" width="110" height="28" rx="8" fill="#3b82f6"/>
  <text x="1020" y="151" fill="#fff" font-family="system-ui" font-size="13" font-weight="600">Create share</text>
  <!-- Section header -->
  <text x="272" y="218" fill="#4a5178" font-family="system-ui" font-size="12" font-weight="600" letter-spacing="0.8">SHARES</text>
  <!-- Table -->
  <text x="292" y="246" fill="#4a5178" font-family="system-ui" font-size="10" font-weight="600" letter-spacing="0.6">NAME</text>
  <text x="440" y="246" fill="#4a5178" font-family="system-ui" font-size="10" font-weight="600" letter-spacing="0.6">PATH</text>
  <text x="680" y="246" fill="#4a5178" font-family="system-ui" font-size="10" font-weight="600" letter-spacing="0.6">PROTOCOLS</text>
  <text x="800" y="246" fill="#4a5178" font-family="system-ui" font-size="10" font-weight="600" letter-spacing="0.6">USERS</text>
  <text x="1000" y="246" fill="#4a5178" font-family="system-ui" font-size="10" font-weight="600" letter-spacing="0.6">MODE</text>
  <line x1="272" y1="256" x2="1172" y2="256" stroke="#1e2540"/>
  <!-- Row 1 -->
  <text x="292" y="282" fill="#e8eaf0" font-family="system-ui" font-size="13" font-weight="600">media</text>
  <text x="440" y="282" fill="#c0c4d8" font-family="monospace" font-size="12">/srv/storage/media</text>
  <text x="680" y="282" fill="#c0c4d8" font-family="system-ui" font-size="13">smb, nfs</text>
  <text x="800" y="282" fill="#7b83a6" font-family="system-ui" font-size="13">alex, sam, pat, chris</text>
  <text x="1000" y="282" fill="#c0c4d8" font-family="system-ui" font-size="13">read-write</text>
  <rect x="1100" y="268" width="60" height="24" rx="8" fill="rgba(239,68,68,0.12)" stroke="rgba(239,68,68,0.2)"/>
  <text x="1115" y="285" fill="#f87171" font-family="system-ui" font-size="11" font-weight="600">Delete</text>
  <line x1="272" y1="298" x2="1172" y2="298" stroke="rgba(30,37,64,0.6)"/>
  <!-- Row 2 -->
  <text x="292" y="324" fill="#e8eaf0" font-family="system-ui" font-size="13" font-weight="600">alex-docs</text>
  <text x="440" y="324" fill="#c0c4d8" font-family="monospace" font-size="12">/srv/storage/alex</text>
  <text x="680" y="324" fill="#c0c4d8" font-family="system-ui" font-size="13">smb</text>
  <text x="800" y="324" fill="#7b83a6" font-family="system-ui" font-size="13">alex</text>
  <text x="1000" y="324" fill="#c0c4d8" font-family="system-ui" font-size="13">read-write</text>
  <rect x="1100" y="310" width="60" height="24" rx="8" fill="rgba(239,68,68,0.12)" stroke="rgba(239,68,68,0.2)"/>
  <text x="1115" y="327" fill="#f87171" font-family="system-ui" font-size="11" font-weight="600">Delete</text>
  <line x1="272" y1="340" x2="1172" y2="340" stroke="rgba(30,37,64,0.6)"/>
  <!-- Row 3 -->
  <text x="292" y="366" fill="#e8eaf0" font-family="system-ui" font-size="13" font-weight="600">backups</text>
  <text x="440" y="366" fill="#c0c4d8" font-family="monospace" font-size="12">/srv/storage/backups</text>
  <text x="680" y="366" fill="#c0c4d8" font-family="system-ui" font-size="13">smb</text>
  <text x="800" y="366" fill="#7b83a6" font-family="system-ui" font-size="13">admin</text>
  <text x="1000" y="366" fill="#c0c4d8" font-family="system-ui" font-size="13">read-only</text>
  <rect x="1100" y="352" width="60" height="24" rx="8" fill="rgba(239,68,68,0.12)" stroke="rgba(239,68,68,0.2)"/>
  <text x="1115" y="369" fill="#f87171" font-family="system-ui" font-size="11" font-weight="600">Delete</text>
</svg>
